<?xml version="1.0" standalone="no"?>
<!DOCTYPE svg PUBLIC "-//W3C//DTD SVG 20010904//EN"
 "http://www.w3.org/TR/2001/REC-SVG-20010904/DTD/svg10.dtd">
<svg version="1.0" xmlns="http://www.w3.org/2000/svg"
 width="1200.000000pt" height="1200.000000pt" viewBox="0 0 1200.000000 1200.000000"
 preserveAspectRatio="xMidYMid meet">
<metadata>
Created by potrace 1.15, written by Peter Selinger 2001-2017
</metadata>
<g transform="translate(0.000000,1200.000000) scale(0.100000,-0.100000)"
fill="#000000" stroke="none">
<path d="M4120 6900 l0 -1500 190 0 190 0 0 40 0 40 -150 0 -150 0 0 1420 0
1420 150 0 150 0 0 40 0 40 -190 0 -190 0 0 -1500z"/>
<path d="M7500 8360 l0 -40 150 0 150 0 0 -1420 0 -1420 -150 0 -150 0 0 -40
0 -40 190 0 190 0 0 1500 0 1500 -190 0 -190 0 0 -40z"/>
<path d="M5295 7618 c15 -140 61 -260 143 -370 61 -82 190 -198 306 -274 58
-38 106 -71 106 -74 0 -3 -21 -18 -48 -35 -98 -61 -229 -165 -293 -231 -135
-141 -193 -264 -214 -451 l-7 -63 75 0 74 0 7 58 c16 142 69 246 186 362 82
82 217 185 320 243 l50 29 92 -59 92 -58 -130 -5 c-71 -3 -136 -9 -144 -14
-45 -29 -160 -120 -160 -127 0 -5 140 -9 315 -9 l314 0 52 -62 52 -63 -433 -3
c-488 -3 -439 7 -485 -89 -14 -28 -25 -54 -25 -57 0 -3 226 -7 503 -8 l502 -3
9 -67 8 -68 74 0 c84 0 80 -7 64 103 -24 162 -91 288 -225 423 -101 101 -193
169 -405 299 -361 220 -494 334 -569 485 -30 62 -45 107 -53 168 l-12 82 -74
0 -74 0 7 -62z"/>
<path d="M6555 7623 c-4 -31 -9 -62 -12 -70 -4 -11 -96 -13 -505 -13 l-499 0
7 -22 c8 -29 39 -87 57 -110 13 -17 46 -18 441 -18 234 0 426 -4 426 -8 0 -4
-23 -34 -51 -65 l-51 -57 -309 0 c-170 0 -309 -3 -309 -7 0 -9 46 -47 125
-102 l58 -41 131 0 130 0 -62 -42 c-34 -24 -62 -46 -62 -49 0 -8 117 -79 130
-79 11 0 159 110 229 169 159 136 255 313 277 509 l7 62 -76 0 -75 0 -7 -57z"/>
<path d="M1924 4736 c-79 -37 -122 -116 -110 -204 13 -95 57 -130 246 -197
127 -45 165 -67 186 -108 19 -37 14 -105 -11 -143 -52 -80 -232 -83 -325 -5
-32 27 -35 34 -40 97 -5 63 -7 69 -29 72 -13 2 -28 -2 -32 -10 -10 -15 -12
-238 -3 -262 3 -9 16 -16 29 -16 24 0 35 17 35 52 0 19 0 19 26 -1 39 -31 118
-51 198 -51 134 0 219 65 233 178 8 71 -3 117 -39 158 -38 42 -88 68 -232 119
-62 22 -123 50 -140 65 -26 24 -30 34 -30 77 0 63 22 99 77 124 78 35 203 17
247 -36 8 -10 17 -43 20 -74 5 -54 6 -56 35 -56 l30 0 0 120 0 120 -27 3 c-22
3 -29 -2 -33 -21 l-6 -24 -46 24 c-66 33 -187 33 -259 -1z"/>
<path d="M6154 4735 c-12 -29 16 -45 77 -45 l59 0 0 -330 0 -330 -59 0 c-62 0
-86 -14 -75 -44 6 -16 26 -17 208 -14 196 3 202 4 261 31 33 15 68 36 79 45
71 64 74 234 5 308 -11 12 -37 29 -59 39 l-38 17 34 30 c68 60 70 174 5 239
-57 57 -112 69 -318 69 -146 0 -175 -2 -179 -15z m380 -56 c59 -16 96 -58 96
-109 0 -92 -57 -135 -194 -147 l-76 -6 0 137 0 136 68 0 c37 0 85 -5 106 -11z
m94 -352 c47 -31 67 -78 59 -144 -11 -96 -86 -145 -234 -151 l-93 -4 0 167 0
168 114 -5 c103 -4 118 -7 154 -31z"/>
<path d="M5430 4661 c-5 -11 -10 -54 -10 -95 l0 -76 -54 0 c-56 0 -83 -17 -72
-45 4 -11 21 -15 66 -15 l60 0 0 -194 c0 -221 3 -230 85 -262 121 -46 366 33
292 94 -9 8 -26 4 -63 -14 -54 -26 -137 -41 -178 -30 -15 4 -35 15 -46 26 -18
18 -20 34 -20 200 l0 180 130 0 c107 0 132 3 136 15 14 36 -13 45 -142 45
l-124 0 0 79 c0 44 -3 86 -6 95 -8 22 -41 20 -54 -3z"/>
<path d="M2761 4485 c-16 -14 -33 -36 -38 -48 -6 -19 -8 -16 -13 18 -4 36 -8
40 -35 43 -16 1 -52 -3 -80 -10 -43 -11 -50 -16 -50 -38 0 -24 3 -25 48 -22
l47 3 0 -200 0 -200 -42 -3 c-39 -3 -43 -6 -46 -31 l-3 -28 123 3 123 3 0 25
c0 22 -5 25 -38 28 l-38 3 3 168 c3 166 3 168 31 204 44 58 107 62 129 9 6
-15 14 -119 17 -232 l6 -205 80 0 c79 0 80 0 80 25 0 23 -4 25 -47 28 l-48 3
0 156 c0 174 10 211 64 244 43 27 72 24 93 -8 16 -23 18 -57 21 -240 l4 -213
78 0 c82 0 96 8 78 43 -6 12 -21 17 -47 17 l-39 0 -4 188 c-3 153 -7 193 -20
219 -28 50 -64 73 -116 73 -39 0 -50 -5 -88 -43 -37 -38 -44 -41 -49 -26 -12
36 -64 69 -110 69 -32 0 -51 -7 -74 -25z"/>
<path d="M3690 4501 c-52 -17 -92 -43 -110 -74 -35 -56 -22 -107 27 -107 22 0
24 3 48 96 8 29 158 45 205 21 32 -16 60 -71 60 -118 l0 -36 -110 -6 c-185
-10 -255 -55 -255 -167 0 -65 19 -101 68 -130 61 -37 205 -22 275 29 l26 18
21 -31 c18 -26 28 -31 68 -34 61 -4 117 27 117 64 0 34 -24 40 -56 15 -32 -25
-69 -27 -78 -5 -3 9 -6 84 -6 168 0 181 -12 232 -68 274 -31 24 -45 27 -121
29 -47 1 -97 -1 -111 -6z m230 -340 c0 -63 -2 -71 -26 -90 -15 -12 -49 -28
-77 -36 -117 -35 -187 -9 -187 69 0 44 21 74 65 91 16 6 164 30 213 34 8 1 12
-19 12 -68z"/>
<path d="M4751 4495 c-24 -7 -61 -27 -81 -44 l-38 -31 -7 40 c-6 36 -10 40
-35 40 -48 0 -128 -20 -141 -36 -9 -11 -9 -18 2 -30 10 -12 23 -14 61 -9 l48
7 0 -201 0 -201 -64 0 c-67 0 -94 -15 -82 -45 8 -23 454 -23 462 0 14 36 -14
45 -132 45 l-114 0 0 151 0 152 43 42 c42 42 118 75 174 75 20 0 23 -5 23 -42
0 -54 11 -71 41 -66 23 3 24 6 24 83 l0 80 -70 2 c-38 1 -90 -4 -114 -12z"/>
<path d="M7391 4495 c-24 -7 -61 -27 -81 -44 l-38 -31 -7 40 c-6 36 -10 40
-35 40 -48 0 -128 -20 -141 -36 -9 -11 -9 -18 2 -30 10 -12 23 -14 61 -9 l48
7 0 -201 0 -201 -64 0 c-67 0 -94 -15 -82 -45 8 -23 454 -23 462 0 14 36 -14
45 -132 45 l-114 0 0 151 0 152 43 42 c42 42 118 75 174 75 20 0 23 -5 23 -42
0 -54 11 -71 41 -66 23 3 24 6 24 83 l0 80 -70 2 c-38 1 -90 -4 -114 -12z"/>
<path d="M8090 4501 c-52 -17 -92 -43 -110 -74 -35 -56 -22 -107 27 -107 22 0
24 3 48 96 8 29 158 45 205 21 32 -16 60 -71 60 -118 l0 -36 -110 -6 c-185
-10 -255 -55 -255 -167 0 -65 19 -101 68 -130 61 -37 205 -22 275 29 l26 18
21 -31 c18 -26 28 -31 68 -34 61 -4 117 27 117 64 0 34 -24 40 -56 15 -32 -25
-69 -27 -78 -5 -3 9 -6 84 -6 168 0 181 -12 232 -68 274 -31 24 -45 27 -121
29 -47 1 -97 -1 -111 -6z m230 -340 c0 -63 -2 -71 -26 -90 -15 -12 -49 -28
-77 -36 -117 -35 -187 -9 -187 69 0 44 21 74 65 91 16 6 164 30 213 34 8 1 12
-19 12 -68z"/>
<path d="M8980 4491 c-111 -17 -130 -24 -130 -46 0 -28 33 -33 125 -19 50 7
98 14 108 14 16 0 17 -16 17 -205 l0 -205 -122 0 c-130 0 -152 -6 -146 -36 3
-18 17 -19 293 -19 276 0 290 1 293 19 6 30 -16 36 -135 36 l-113 0 0 240 0
240 -42 -1 c-24 -1 -90 -9 -148 -18z"/>
<path d="M9910 4490 c-25 -12 -57 -33 -72 -47 l-28 -27 0 37 c0 48 -14 53
-100 38 -71 -13 -91 -30 -69 -58 9 -10 24 -12 56 -7 l43 6 0 -201 0 -201 -39
0 c-42 0 -65 -18 -55 -44 6 -14 23 -16 133 -14 l126 3 0 25 c0 23 -4 25 -48
28 l-49 3 4 152 c3 139 5 155 26 184 45 63 165 100 236 73 52 -19 59 -45 61
-235 l1 -175 -52 0 c-54 0 -81 -17 -70 -45 4 -12 30 -15 146 -15 l141 0 -3 28
c-3 24 -8 27 -45 30 l-41 3 -4 177 c-3 195 -13 234 -71 276 -42 31 -166 34
-227 6z"/>
</g>
</svg>
